<mxfile host="app.diagrams.net" modified="2023-08-07T08:35:14.696Z" agent="Mozilla/5.0 (Macintosh; Intel Mac OS X 10_15_7) AppleWebKit/537.36 (KHTML, like Gecko) Chrome/115.0.0.0 Safari/537.36" etag="FPNpx5GrXGejzxKMoPNG" version="21.5.2" type="github">
  <diagram id="C5RBs43oDa-KdzZeNtuy" name="Page-1">
    <mxGraphModel dx="1235" dy="679" grid="1" gridSize="10" guides="1" tooltips="1" connect="1" arrows="1" fold="1" page="0" pageScale="1" pageWidth="827" pageHeight="1169" math="0" shadow="0">
      <root>
        <mxCell id="WIyWlLk6GJQsqaUBKTNV-0" />
        <mxCell id="WIyWlLk6GJQsqaUBKTNV-1" parent="WIyWlLk6GJQsqaUBKTNV-0" />
        <mxCell id="vghfPPBGdmsyJYKC0ugQ-2" style="edgeStyle=orthogonalEdgeStyle;rounded=0;orthogonalLoop=1;jettySize=auto;html=1;entryX=0.5;entryY=0;entryDx=0;entryDy=0;" edge="1" parent="WIyWlLk6GJQsqaUBKTNV-1" source="vghfPPBGdmsyJYKC0ugQ-3" target="vghfPPBGdmsyJYKC0ugQ-31">
          <mxGeometry relative="1" as="geometry" />
        </mxCell>
        <mxCell id="vghfPPBGdmsyJYKC0ugQ-3" value="프로그램 시작" style="rounded=1;whiteSpace=wrap;html=1;fontSize=12;glass=0;strokeWidth=1;shadow=0;" vertex="1" parent="WIyWlLk6GJQsqaUBKTNV-1">
          <mxGeometry x="130" y="800" width="120" height="40" as="geometry" />
        </mxCell>
        <mxCell id="vghfPPBGdmsyJYKC0ugQ-4" style="edgeStyle=orthogonalEdgeStyle;rounded=0;orthogonalLoop=1;jettySize=auto;html=1;exitX=0.5;exitY=1;exitDx=0;exitDy=0;" edge="1" parent="WIyWlLk6GJQsqaUBKTNV-1" source="vghfPPBGdmsyJYKC0ugQ-8" target="vghfPPBGdmsyJYKC0ugQ-9">
          <mxGeometry relative="1" as="geometry" />
        </mxCell>
        <mxCell id="vghfPPBGdmsyJYKC0ugQ-5" value="Yes" style="edgeLabel;html=1;align=center;verticalAlign=middle;resizable=0;points=[];" vertex="1" connectable="0" parent="vghfPPBGdmsyJYKC0ugQ-4">
          <mxGeometry x="-0.28" y="1" relative="1" as="geometry">
            <mxPoint x="19" y="8" as="offset" />
          </mxGeometry>
        </mxCell>
        <mxCell id="vghfPPBGdmsyJYKC0ugQ-6" style="edgeStyle=orthogonalEdgeStyle;rounded=0;orthogonalLoop=1;jettySize=auto;html=1;entryX=0;entryY=0.5;entryDx=0;entryDy=0;" edge="1" parent="WIyWlLk6GJQsqaUBKTNV-1" source="vghfPPBGdmsyJYKC0ugQ-8" target="vghfPPBGdmsyJYKC0ugQ-45">
          <mxGeometry relative="1" as="geometry">
            <mxPoint x="370" y="1040" as="targetPoint" />
          </mxGeometry>
        </mxCell>
        <mxCell id="vghfPPBGdmsyJYKC0ugQ-7" value="No" style="edgeLabel;html=1;align=center;verticalAlign=middle;resizable=0;points=[];" vertex="1" connectable="0" parent="vghfPPBGdmsyJYKC0ugQ-6">
          <mxGeometry x="-0.21" y="-4" relative="1" as="geometry">
            <mxPoint y="-24" as="offset" />
          </mxGeometry>
        </mxCell>
        <mxCell id="vghfPPBGdmsyJYKC0ugQ-8" value="EOF?" style="rhombus;whiteSpace=wrap;html=1;shadow=0;fontFamily=Helvetica;fontSize=12;align=center;strokeWidth=1;spacing=6;spacingTop=-4;" vertex="1" parent="WIyWlLk6GJQsqaUBKTNV-1">
          <mxGeometry x="100" y="1050" width="180" height="80" as="geometry" />
        </mxCell>
        <mxCell id="vghfPPBGdmsyJYKC0ugQ-9" value="프로그램 종료" style="rounded=1;whiteSpace=wrap;html=1;fontSize=12;glass=0;strokeWidth=1;shadow=0;" vertex="1" parent="WIyWlLk6GJQsqaUBKTNV-1">
          <mxGeometry x="130" y="1280" width="120" height="40" as="geometry" />
        </mxCell>
        <mxCell id="vghfPPBGdmsyJYKC0ugQ-22" value="built-in pool에 &lt;br&gt;있는 함수 실행" style="rounded=1;whiteSpace=wrap;html=1;fontSize=12;glass=0;strokeWidth=1;shadow=0;" vertex="1" parent="WIyWlLk6GJQsqaUBKTNV-1">
          <mxGeometry x="3100" y="355" width="120" height="40" as="geometry" />
        </mxCell>
        <mxCell id="vghfPPBGdmsyJYKC0ugQ-23" style="edgeStyle=orthogonalEdgeStyle;rounded=0;orthogonalLoop=1;jettySize=auto;html=1;entryX=0;entryY=0.5;entryDx=0;entryDy=0;" edge="1" parent="WIyWlLk6GJQsqaUBKTNV-1" source="vghfPPBGdmsyJYKC0ugQ-27" target="vghfPPBGdmsyJYKC0ugQ-22">
          <mxGeometry relative="1" as="geometry" />
        </mxCell>
        <mxCell id="vghfPPBGdmsyJYKC0ugQ-24" value="Yes" style="edgeLabel;html=1;align=center;verticalAlign=middle;resizable=0;points=[];" vertex="1" connectable="0" parent="vghfPPBGdmsyJYKC0ugQ-23">
          <mxGeometry x="-0.02" y="-2" relative="1" as="geometry">
            <mxPoint x="-1" y="-22" as="offset" />
          </mxGeometry>
        </mxCell>
        <mxCell id="vghfPPBGdmsyJYKC0ugQ-25" style="edgeStyle=orthogonalEdgeStyle;rounded=0;orthogonalLoop=1;jettySize=auto;html=1;entryX=0.5;entryY=1;entryDx=0;entryDy=0;" edge="1" parent="WIyWlLk6GJQsqaUBKTNV-1" target="vghfPPBGdmsyJYKC0ugQ-29">
          <mxGeometry relative="1" as="geometry">
            <mxPoint x="2715" y="375" as="sourcePoint" />
          </mxGeometry>
        </mxCell>
        <mxCell id="vghfPPBGdmsyJYKC0ugQ-26" value="No" style="edgeLabel;html=1;align=center;verticalAlign=middle;resizable=0;points=[];" vertex="1" connectable="0" parent="vghfPPBGdmsyJYKC0ugQ-25">
          <mxGeometry x="-0.3673" relative="1" as="geometry">
            <mxPoint x="15" as="offset" />
          </mxGeometry>
        </mxCell>
        <mxCell id="vghfPPBGdmsyJYKC0ugQ-27" value="built-in?" style="rhombus;whiteSpace=wrap;html=1;shadow=0;fontFamily=Helvetica;fontSize=12;align=center;strokeWidth=1;spacing=6;spacingTop=-4;" vertex="1" parent="WIyWlLk6GJQsqaUBKTNV-1">
          <mxGeometry x="2920" y="340" width="130" height="70" as="geometry" />
        </mxCell>
        <mxCell id="vghfPPBGdmsyJYKC0ugQ-29" value="fork&lt;br&gt;&amp;amp;&lt;br&gt;execve" style="rounded=1;whiteSpace=wrap;html=1;fontSize=12;glass=0;strokeWidth=1;shadow=0;" vertex="1" parent="WIyWlLk6GJQsqaUBKTNV-1">
          <mxGeometry x="2710" y="305" width="120" height="40" as="geometry" />
        </mxCell>
        <mxCell id="vghfPPBGdmsyJYKC0ugQ-30" style="edgeStyle=orthogonalEdgeStyle;rounded=0;orthogonalLoop=1;jettySize=auto;html=1;" edge="1" parent="WIyWlLk6GJQsqaUBKTNV-1" source="vghfPPBGdmsyJYKC0ugQ-31" target="vghfPPBGdmsyJYKC0ugQ-8">
          <mxGeometry relative="1" as="geometry" />
        </mxCell>
        <mxCell id="vghfPPBGdmsyJYKC0ugQ-31" value="프롬프트 입력대기" style="shape=parallelogram;perimeter=parallelogramPerimeter;whiteSpace=wrap;html=1;fixedSize=1;" vertex="1" parent="WIyWlLk6GJQsqaUBKTNV-1">
          <mxGeometry x="130" y="880" width="120" height="60" as="geometry" />
        </mxCell>
        <mxCell id="vghfPPBGdmsyJYKC0ugQ-59" value="Parsing(AST creating)" style="swimlane;whiteSpace=wrap;html=1;" vertex="1" parent="WIyWlLk6GJQsqaUBKTNV-1">
          <mxGeometry x="390" y="620" width="1540" height="1510" as="geometry" />
        </mxCell>
        <mxCell id="vghfPPBGdmsyJYKC0ugQ-359" style="edgeStyle=orthogonalEdgeStyle;rounded=0;orthogonalLoop=1;jettySize=auto;html=1;entryX=0;entryY=0.5;entryDx=0;entryDy=0;" edge="1" parent="vghfPPBGdmsyJYKC0ugQ-59" source="vghfPPBGdmsyJYKC0ugQ-61" target="vghfPPBGdmsyJYKC0ugQ-50">
          <mxGeometry relative="1" as="geometry" />
        </mxCell>
        <mxCell id="vghfPPBGdmsyJYKC0ugQ-61" value="생성규칙 expansion" style="rounded=1;whiteSpace=wrap;html=1;fontSize=12;glass=0;strokeWidth=1;shadow=0;" vertex="1" parent="vghfPPBGdmsyJYKC0ugQ-59">
          <mxGeometry x="250" y="450" width="150" height="40" as="geometry" />
        </mxCell>
        <mxCell id="vghfPPBGdmsyJYKC0ugQ-80" style="edgeStyle=orthogonalEdgeStyle;rounded=0;orthogonalLoop=1;jettySize=auto;html=1;entryX=0;entryY=0.5;entryDx=0;entryDy=0;" edge="1" parent="vghfPPBGdmsyJYKC0ugQ-59" source="vghfPPBGdmsyJYKC0ugQ-45" target="vghfPPBGdmsyJYKC0ugQ-61">
          <mxGeometry relative="1" as="geometry" />
        </mxCell>
        <mxCell id="vghfPPBGdmsyJYKC0ugQ-45" value="get_next_token" style="rounded=1;whiteSpace=wrap;html=1;fontSize=12;glass=0;strokeWidth=1;shadow=0;" vertex="1" parent="vghfPPBGdmsyJYKC0ugQ-59">
          <mxGeometry x="30" y="450" width="160" height="40" as="geometry" />
        </mxCell>
        <mxCell id="vghfPPBGdmsyJYKC0ugQ-364" value="Yes" style="edgeStyle=orthogonalEdgeStyle;rounded=0;orthogonalLoop=1;jettySize=auto;html=1;entryX=0;entryY=0.5;entryDx=0;entryDy=0;" edge="1" parent="vghfPPBGdmsyJYKC0ugQ-59" source="vghfPPBGdmsyJYKC0ugQ-43" target="vghfPPBGdmsyJYKC0ugQ-99">
          <mxGeometry relative="1" as="geometry" />
        </mxCell>
        <mxCell id="vghfPPBGdmsyJYKC0ugQ-366" style="edgeStyle=orthogonalEdgeStyle;rounded=0;orthogonalLoop=1;jettySize=auto;html=1;entryX=0.5;entryY=1;entryDx=0;entryDy=0;" edge="1" parent="vghfPPBGdmsyJYKC0ugQ-59" source="vghfPPBGdmsyJYKC0ugQ-43" target="vghfPPBGdmsyJYKC0ugQ-51">
          <mxGeometry relative="1" as="geometry" />
        </mxCell>
        <mxCell id="vghfPPBGdmsyJYKC0ugQ-43" value="token match?" style="rhombus;whiteSpace=wrap;html=1;shadow=0;fontFamily=Helvetica;fontSize=12;align=center;strokeWidth=1;spacing=6;spacingTop=-4;" vertex="1" parent="vghfPPBGdmsyJYKC0ugQ-59">
          <mxGeometry x="457" y="430" width="150" height="80" as="geometry" />
        </mxCell>
        <mxCell id="vghfPPBGdmsyJYKC0ugQ-360" value="No" style="edgeStyle=orthogonalEdgeStyle;rounded=0;orthogonalLoop=1;jettySize=auto;html=1;entryX=0.5;entryY=1;entryDx=0;entryDy=0;" edge="1" parent="vghfPPBGdmsyJYKC0ugQ-59" source="vghfPPBGdmsyJYKC0ugQ-50" target="vghfPPBGdmsyJYKC0ugQ-43">
          <mxGeometry relative="1" as="geometry" />
        </mxCell>
        <mxCell id="vghfPPBGdmsyJYKC0ugQ-362" style="edgeStyle=orthogonalEdgeStyle;rounded=0;orthogonalLoop=1;jettySize=auto;html=1;" edge="1" parent="vghfPPBGdmsyJYKC0ugQ-59" source="vghfPPBGdmsyJYKC0ugQ-50" target="vghfPPBGdmsyJYKC0ugQ-61">
          <mxGeometry relative="1" as="geometry">
            <Array as="points">
              <mxPoint x="532" y="770" />
              <mxPoint x="325" y="770" />
            </Array>
          </mxGeometry>
        </mxCell>
        <mxCell id="vghfPPBGdmsyJYKC0ugQ-363" value="Yes" style="edgeLabel;html=1;align=center;verticalAlign=middle;resizable=0;points=[];" vertex="1" connectable="0" parent="vghfPPBGdmsyJYKC0ugQ-362">
          <mxGeometry x="-0.8676" y="-1" relative="1" as="geometry">
            <mxPoint as="offset" />
          </mxGeometry>
        </mxCell>
        <mxCell id="vghfPPBGdmsyJYKC0ugQ-50" value="is in first set?" style="rhombus;whiteSpace=wrap;html=1;shadow=0;fontFamily=Helvetica;fontSize=12;align=center;strokeWidth=1;spacing=6;spacingTop=-4;" vertex="1" parent="vghfPPBGdmsyJYKC0ugQ-59">
          <mxGeometry x="457" y="550" width="150" height="80" as="geometry" />
        </mxCell>
        <mxCell id="vghfPPBGdmsyJYKC0ugQ-51" value="Syntax error" style="rounded=1;whiteSpace=wrap;html=1;fontSize=12;glass=0;strokeWidth=1;shadow=0;" vertex="1" parent="vghfPPBGdmsyJYKC0ugQ-59">
          <mxGeometry x="472" y="270" width="120" height="40" as="geometry" />
        </mxCell>
        <mxCell id="vghfPPBGdmsyJYKC0ugQ-57" value="히어독 입력대기" style="rounded=1;whiteSpace=wrap;html=1;fontSize=12;glass=0;strokeWidth=1;shadow=0;" vertex="1" parent="vghfPPBGdmsyJYKC0ugQ-59">
          <mxGeometry x="710.0000000000001" y="160" width="120" height="40" as="geometry" />
        </mxCell>
        <mxCell id="vghfPPBGdmsyJYKC0ugQ-104" style="edgeStyle=orthogonalEdgeStyle;rounded=0;orthogonalLoop=1;jettySize=auto;html=1;entryX=1;entryY=0.5;entryDx=0;entryDy=0;" edge="1" parent="vghfPPBGdmsyJYKC0ugQ-59" source="vghfPPBGdmsyJYKC0ugQ-58" target="vghfPPBGdmsyJYKC0ugQ-51">
          <mxGeometry relative="1" as="geometry" />
        </mxCell>
        <mxCell id="vghfPPBGdmsyJYKC0ugQ-107" value="Yes" style="edgeLabel;html=1;align=center;verticalAlign=middle;resizable=0;points=[];" vertex="1" connectable="0" parent="vghfPPBGdmsyJYKC0ugQ-104">
          <mxGeometry x="-0.0667" y="3" relative="1" as="geometry">
            <mxPoint x="4" y="-23" as="offset" />
          </mxGeometry>
        </mxCell>
        <mxCell id="vghfPPBGdmsyJYKC0ugQ-376" style="edgeStyle=orthogonalEdgeStyle;rounded=0;orthogonalLoop=1;jettySize=auto;html=1;entryX=0.5;entryY=1;entryDx=0;entryDy=0;" edge="1" parent="vghfPPBGdmsyJYKC0ugQ-59" source="vghfPPBGdmsyJYKC0ugQ-58" target="vghfPPBGdmsyJYKC0ugQ-57">
          <mxGeometry relative="1" as="geometry" />
        </mxCell>
        <mxCell id="vghfPPBGdmsyJYKC0ugQ-58" value="16회 이상 매칭되었는가?" style="rhombus;whiteSpace=wrap;html=1;shadow=0;fontFamily=Helvetica;fontSize=12;align=center;strokeWidth=1;spacing=6;spacingTop=-4;" vertex="1" parent="vghfPPBGdmsyJYKC0ugQ-59">
          <mxGeometry x="690" y="250" width="150" height="80" as="geometry" />
        </mxCell>
        <mxCell id="vghfPPBGdmsyJYKC0ugQ-108" style="edgeStyle=orthogonalEdgeStyle;rounded=0;orthogonalLoop=1;jettySize=auto;html=1;entryX=0.5;entryY=0;entryDx=0;entryDy=0;" edge="1" parent="vghfPPBGdmsyJYKC0ugQ-59" source="vghfPPBGdmsyJYKC0ugQ-55" target="vghfPPBGdmsyJYKC0ugQ-61">
          <mxGeometry relative="1" as="geometry">
            <mxPoint x="400" y="350.0000000000002" as="targetPoint" />
          </mxGeometry>
        </mxCell>
        <mxCell id="vghfPPBGdmsyJYKC0ugQ-111" value="Yes" style="edgeLabel;html=1;align=center;verticalAlign=middle;resizable=0;points=[];" vertex="1" connectable="0" parent="vghfPPBGdmsyJYKC0ugQ-108">
          <mxGeometry x="-0.8486" y="1" relative="1" as="geometry">
            <mxPoint x="41" y="-21" as="offset" />
          </mxGeometry>
        </mxCell>
        <mxCell id="vghfPPBGdmsyJYKC0ugQ-55" value="입력 스트링이 delimeter인가?" style="rhombus;whiteSpace=wrap;html=1;shadow=0;fontFamily=Helvetica;fontSize=12;align=center;strokeWidth=1;spacing=6;spacingTop=-4;" vertex="1" parent="vghfPPBGdmsyJYKC0ugQ-59">
          <mxGeometry x="675.0000000000001" y="50" width="190" height="80" as="geometry" />
        </mxCell>
        <mxCell id="vghfPPBGdmsyJYKC0ugQ-52" style="edgeStyle=orthogonalEdgeStyle;rounded=0;orthogonalLoop=1;jettySize=auto;html=1;exitX=1;exitY=0.5;exitDx=0;exitDy=0;" edge="1" parent="vghfPPBGdmsyJYKC0ugQ-59" source="vghfPPBGdmsyJYKC0ugQ-55">
          <mxGeometry relative="1" as="geometry">
            <Array as="points">
              <mxPoint x="910.11" y="90" />
              <mxPoint x="910.11" y="190" />
            </Array>
            <mxPoint x="820.11" y="190" as="targetPoint" />
          </mxGeometry>
        </mxCell>
        <mxCell id="vghfPPBGdmsyJYKC0ugQ-53" value="No" style="edgeLabel;html=1;align=center;verticalAlign=middle;resizable=0;points=[];" vertex="1" connectable="0" parent="vghfPPBGdmsyJYKC0ugQ-52">
          <mxGeometry x="-0.8055" relative="1" as="geometry">
            <mxPoint x="-5" y="-10" as="offset" />
          </mxGeometry>
        </mxCell>
        <mxCell id="vghfPPBGdmsyJYKC0ugQ-56" style="edgeStyle=orthogonalEdgeStyle;rounded=0;orthogonalLoop=1;jettySize=auto;html=1;exitX=0.5;exitY=0;exitDx=0;exitDy=0;entryX=0.5;entryY=1;entryDx=0;entryDy=0;" edge="1" parent="vghfPPBGdmsyJYKC0ugQ-59" source="vghfPPBGdmsyJYKC0ugQ-57" target="vghfPPBGdmsyJYKC0ugQ-55">
          <mxGeometry relative="1" as="geometry" />
        </mxCell>
        <mxCell id="vghfPPBGdmsyJYKC0ugQ-119" style="edgeStyle=orthogonalEdgeStyle;rounded=0;orthogonalLoop=1;jettySize=auto;html=1;entryX=0.5;entryY=0;entryDx=0;entryDy=0;" edge="1" parent="vghfPPBGdmsyJYKC0ugQ-59" source="vghfPPBGdmsyJYKC0ugQ-99" target="vghfPPBGdmsyJYKC0ugQ-118">
          <mxGeometry relative="1" as="geometry" />
        </mxCell>
        <mxCell id="vghfPPBGdmsyJYKC0ugQ-356" style="edgeStyle=orthogonalEdgeStyle;rounded=0;orthogonalLoop=1;jettySize=auto;html=1;entryX=0.5;entryY=1;entryDx=0;entryDy=0;" edge="1" parent="vghfPPBGdmsyJYKC0ugQ-59" source="vghfPPBGdmsyJYKC0ugQ-99" target="vghfPPBGdmsyJYKC0ugQ-58">
          <mxGeometry relative="1" as="geometry" />
        </mxCell>
        <mxCell id="vghfPPBGdmsyJYKC0ugQ-99" value="heredoc token match?" style="rhombus;whiteSpace=wrap;html=1;shadow=0;fontFamily=Helvetica;fontSize=12;align=center;strokeWidth=1;spacing=6;spacingTop=-4;" vertex="1" parent="vghfPPBGdmsyJYKC0ugQ-59">
          <mxGeometry x="689.9999999999998" y="470" width="150" height="80" as="geometry" />
        </mxCell>
        <mxCell id="vghfPPBGdmsyJYKC0ugQ-377" style="edgeStyle=orthogonalEdgeStyle;rounded=0;orthogonalLoop=1;jettySize=auto;html=1;entryX=0;entryY=0.5;entryDx=0;entryDy=0;" edge="1" parent="vghfPPBGdmsyJYKC0ugQ-59" source="vghfPPBGdmsyJYKC0ugQ-100" target="vghfPPBGdmsyJYKC0ugQ-51">
          <mxGeometry relative="1" as="geometry">
            <Array as="points">
              <mxPoint x="20" y="870" />
              <mxPoint x="20" y="290" />
            </Array>
          </mxGeometry>
        </mxCell>
        <mxCell id="vghfPPBGdmsyJYKC0ugQ-379" value="No" style="edgeLabel;html=1;align=center;verticalAlign=middle;resizable=0;points=[];" vertex="1" connectable="0" parent="vghfPPBGdmsyJYKC0ugQ-377">
          <mxGeometry x="-0.8725" y="-2" relative="1" as="geometry">
            <mxPoint x="-1" as="offset" />
          </mxGeometry>
        </mxCell>
        <mxCell id="vghfPPBGdmsyJYKC0ugQ-100" value="tokenizer의 &lt;br&gt;next가 EOF token?&amp;nbsp;" style="rhombus;whiteSpace=wrap;html=1;shadow=0;fontFamily=Helvetica;fontSize=12;align=center;strokeWidth=1;spacing=6;spacingTop=-4;" vertex="1" parent="vghfPPBGdmsyJYKC0ugQ-59">
          <mxGeometry x="49.99999999999977" y="830" width="150" height="80" as="geometry" />
        </mxCell>
        <mxCell id="vghfPPBGdmsyJYKC0ugQ-121" style="edgeStyle=orthogonalEdgeStyle;rounded=0;orthogonalLoop=1;jettySize=auto;html=1;entryX=0.5;entryY=0;entryDx=0;entryDy=0;" edge="1" parent="vghfPPBGdmsyJYKC0ugQ-59" source="vghfPPBGdmsyJYKC0ugQ-118" target="vghfPPBGdmsyJYKC0ugQ-120">
          <mxGeometry relative="1" as="geometry" />
        </mxCell>
        <mxCell id="vghfPPBGdmsyJYKC0ugQ-118" value="ready to make node" style="rounded=1;whiteSpace=wrap;html=1;fontSize=12;glass=0;strokeWidth=1;shadow=0;" vertex="1" parent="vghfPPBGdmsyJYKC0ugQ-59">
          <mxGeometry x="685" y="630" width="160" height="40" as="geometry" />
        </mxCell>
        <mxCell id="vghfPPBGdmsyJYKC0ugQ-123" value="Yes" style="edgeStyle=orthogonalEdgeStyle;rounded=0;orthogonalLoop=1;jettySize=auto;html=1;" edge="1" parent="vghfPPBGdmsyJYKC0ugQ-59" source="vghfPPBGdmsyJYKC0ugQ-120" target="vghfPPBGdmsyJYKC0ugQ-122">
          <mxGeometry relative="1" as="geometry" />
        </mxCell>
        <mxCell id="vghfPPBGdmsyJYKC0ugQ-125" value="No" style="edgeStyle=orthogonalEdgeStyle;rounded=0;orthogonalLoop=1;jettySize=auto;html=1;entryX=0;entryY=0.5;entryDx=0;entryDy=0;" edge="1" parent="vghfPPBGdmsyJYKC0ugQ-59" source="vghfPPBGdmsyJYKC0ugQ-120" target="vghfPPBGdmsyJYKC0ugQ-126">
          <mxGeometry relative="1" as="geometry">
            <mxPoint x="900" y="760" as="targetPoint" />
          </mxGeometry>
        </mxCell>
        <mxCell id="vghfPPBGdmsyJYKC0ugQ-120" value="is node command?" style="rhombus;whiteSpace=wrap;html=1;shadow=0;fontFamily=Helvetica;fontSize=12;align=center;strokeWidth=1;spacing=6;spacingTop=-4;" vertex="1" parent="vghfPPBGdmsyJYKC0ugQ-59">
          <mxGeometry x="690" y="720" width="150" height="80" as="geometry" />
        </mxCell>
        <mxCell id="vghfPPBGdmsyJYKC0ugQ-130" style="edgeStyle=orthogonalEdgeStyle;rounded=0;orthogonalLoop=1;jettySize=auto;html=1;entryX=0.5;entryY=0;entryDx=0;entryDy=0;" edge="1" parent="vghfPPBGdmsyJYKC0ugQ-59" source="vghfPPBGdmsyJYKC0ugQ-122" target="vghfPPBGdmsyJYKC0ugQ-129">
          <mxGeometry relative="1" as="geometry" />
        </mxCell>
        <mxCell id="vghfPPBGdmsyJYKC0ugQ-122" value="GNT &amp;amp; making leaf" style="rounded=1;whiteSpace=wrap;html=1;fontSize=12;glass=0;strokeWidth=1;shadow=0;" vertex="1" parent="vghfPPBGdmsyJYKC0ugQ-59">
          <mxGeometry x="685" y="840" width="160" height="40" as="geometry" />
        </mxCell>
        <mxCell id="vghfPPBGdmsyJYKC0ugQ-124" style="edgeStyle=orthogonalEdgeStyle;rounded=0;orthogonalLoop=1;jettySize=auto;html=1;exitX=0.5;exitY=1;exitDx=0;exitDy=0;" edge="1" parent="vghfPPBGdmsyJYKC0ugQ-59" source="vghfPPBGdmsyJYKC0ugQ-122" target="vghfPPBGdmsyJYKC0ugQ-122">
          <mxGeometry relative="1" as="geometry" />
        </mxCell>
        <mxCell id="vghfPPBGdmsyJYKC0ugQ-137" style="edgeStyle=orthogonalEdgeStyle;rounded=0;orthogonalLoop=1;jettySize=auto;html=1;entryX=0.5;entryY=0;entryDx=0;entryDy=0;" edge="1" parent="vghfPPBGdmsyJYKC0ugQ-59" source="vghfPPBGdmsyJYKC0ugQ-126" target="vghfPPBGdmsyJYKC0ugQ-129">
          <mxGeometry relative="1" as="geometry">
            <Array as="points">
              <mxPoint x="990" y="910" />
              <mxPoint x="851" y="910" />
            </Array>
          </mxGeometry>
        </mxCell>
        <mxCell id="vghfPPBGdmsyJYKC0ugQ-126" value="making subtree&lt;br&gt;(recur 생성규칙 expansion)" style="rounded=1;whiteSpace=wrap;html=1;fontSize=12;glass=0;strokeWidth=1;shadow=0;" vertex="1" parent="vghfPPBGdmsyJYKC0ugQ-59">
          <mxGeometry x="910" y="740" width="160" height="40" as="geometry" />
        </mxCell>
        <mxCell id="vghfPPBGdmsyJYKC0ugQ-132" style="edgeStyle=orthogonalEdgeStyle;rounded=0;orthogonalLoop=1;jettySize=auto;html=1;entryX=0.5;entryY=1;entryDx=0;entryDy=0;" edge="1" parent="vghfPPBGdmsyJYKC0ugQ-59" source="vghfPPBGdmsyJYKC0ugQ-365" target="vghfPPBGdmsyJYKC0ugQ-61">
          <mxGeometry relative="1" as="geometry" />
        </mxCell>
        <mxCell id="vghfPPBGdmsyJYKC0ugQ-375" value="No" style="edgeLabel;html=1;align=center;verticalAlign=middle;resizable=0;points=[];" vertex="1" connectable="0" parent="vghfPPBGdmsyJYKC0ugQ-132">
          <mxGeometry x="-0.8252" y="1" relative="1" as="geometry">
            <mxPoint as="offset" />
          </mxGeometry>
        </mxCell>
        <mxCell id="vghfPPBGdmsyJYKC0ugQ-136" value="Yes" style="edgeStyle=orthogonalEdgeStyle;rounded=0;orthogonalLoop=1;jettySize=auto;html=1;entryX=0.5;entryY=0;entryDx=0;entryDy=0;" edge="1" parent="vghfPPBGdmsyJYKC0ugQ-59" source="vghfPPBGdmsyJYKC0ugQ-129" target="vghfPPBGdmsyJYKC0ugQ-333">
          <mxGeometry x="-0.6364" y="-31" relative="1" as="geometry">
            <mxPoint x="851" y="1060" as="targetPoint" />
            <mxPoint as="offset" />
          </mxGeometry>
        </mxCell>
        <mxCell id="vghfPPBGdmsyJYKC0ugQ-370" style="edgeStyle=orthogonalEdgeStyle;rounded=0;orthogonalLoop=1;jettySize=auto;html=1;entryX=0.5;entryY=1;entryDx=0;entryDy=0;" edge="1" parent="vghfPPBGdmsyJYKC0ugQ-59" source="vghfPPBGdmsyJYKC0ugQ-129" target="vghfPPBGdmsyJYKC0ugQ-365">
          <mxGeometry relative="1" as="geometry" />
        </mxCell>
        <mxCell id="vghfPPBGdmsyJYKC0ugQ-373" value="No" style="edgeLabel;html=1;align=center;verticalAlign=middle;resizable=0;points=[];" vertex="1" connectable="0" parent="vghfPPBGdmsyJYKC0ugQ-370">
          <mxGeometry x="-0.7828" y="3" relative="1" as="geometry">
            <mxPoint x="1" as="offset" />
          </mxGeometry>
        </mxCell>
        <mxCell id="vghfPPBGdmsyJYKC0ugQ-129" value="need to merge?" style="rhombus;whiteSpace=wrap;html=1;shadow=0;fontFamily=Helvetica;fontSize=12;align=center;strokeWidth=1;spacing=6;spacingTop=-4;" vertex="1" parent="vghfPPBGdmsyJYKC0ugQ-59">
          <mxGeometry x="776" y="940" width="150" height="80" as="geometry" />
        </mxCell>
        <mxCell id="vghfPPBGdmsyJYKC0ugQ-331" value="merge subtree" style="swimlane;" vertex="1" parent="vghfPPBGdmsyJYKC0ugQ-59">
          <mxGeometry x="751" y="1060" width="599" height="380" as="geometry" />
        </mxCell>
        <mxCell id="vghfPPBGdmsyJYKC0ugQ-336" value="No" style="edgeStyle=orthogonalEdgeStyle;rounded=0;orthogonalLoop=1;jettySize=auto;html=1;entryX=0;entryY=0.5;entryDx=0;entryDy=0;" edge="1" parent="vghfPPBGdmsyJYKC0ugQ-331" source="vghfPPBGdmsyJYKC0ugQ-333" target="vghfPPBGdmsyJYKC0ugQ-335">
          <mxGeometry relative="1" as="geometry" />
        </mxCell>
        <mxCell id="vghfPPBGdmsyJYKC0ugQ-338" value="Yes" style="edgeStyle=orthogonalEdgeStyle;rounded=0;orthogonalLoop=1;jettySize=auto;html=1;entryX=0;entryY=0.5;entryDx=0;entryDy=0;" edge="1" parent="vghfPPBGdmsyJYKC0ugQ-331" source="vghfPPBGdmsyJYKC0ugQ-333" target="vghfPPBGdmsyJYKC0ugQ-340">
          <mxGeometry relative="1" as="geometry">
            <mxPoint x="229" y="210" as="targetPoint" />
            <Array as="points">
              <mxPoint x="100" y="210" />
            </Array>
          </mxGeometry>
        </mxCell>
        <mxCell id="vghfPPBGdmsyJYKC0ugQ-333" value="parent의 왼쪽 가지에 command가 존재하는가?" style="rhombus;whiteSpace=wrap;html=1;shadow=0;fontFamily=Helvetica;fontSize=12;align=center;strokeWidth=1;spacing=6;spacingTop=-4;" vertex="1" parent="vghfPPBGdmsyJYKC0ugQ-331">
          <mxGeometry x="25" y="70" width="150" height="80" as="geometry" />
        </mxCell>
        <mxCell id="vghfPPBGdmsyJYKC0ugQ-335" value="insert_left(parent,&amp;nbsp;child)" style="rounded=1;whiteSpace=wrap;html=1;fontSize=12;glass=0;strokeWidth=1;shadow=0;" vertex="1" parent="vghfPPBGdmsyJYKC0ugQ-331">
          <mxGeometry x="229" y="90" width="160" height="40" as="geometry" />
        </mxCell>
        <mxCell id="vghfPPBGdmsyJYKC0ugQ-339" value="insert_left(child,&amp;nbsp;parent)" style="rounded=1;whiteSpace=wrap;html=1;fontSize=12;glass=0;strokeWidth=1;shadow=0;" vertex="1" parent="vghfPPBGdmsyJYKC0ugQ-331">
          <mxGeometry x="214" y="290" width="160" height="40" as="geometry" />
        </mxCell>
        <mxCell id="vghfPPBGdmsyJYKC0ugQ-346" style="edgeStyle=orthogonalEdgeStyle;rounded=0;orthogonalLoop=1;jettySize=auto;html=1;entryX=0;entryY=0.5;entryDx=0;entryDy=0;" edge="1" parent="vghfPPBGdmsyJYKC0ugQ-331" source="vghfPPBGdmsyJYKC0ugQ-340" target="vghfPPBGdmsyJYKC0ugQ-344">
          <mxGeometry relative="1" as="geometry" />
        </mxCell>
        <mxCell id="vghfPPBGdmsyJYKC0ugQ-347" value="Yes" style="edgeLabel;html=1;align=center;verticalAlign=middle;resizable=0;points=[];" vertex="1" connectable="0" parent="vghfPPBGdmsyJYKC0ugQ-346">
          <mxGeometry x="-0.4158" y="2" relative="1" as="geometry">
            <mxPoint as="offset" />
          </mxGeometry>
        </mxCell>
        <mxCell id="vghfPPBGdmsyJYKC0ugQ-350" style="edgeStyle=orthogonalEdgeStyle;rounded=0;orthogonalLoop=1;jettySize=auto;html=1;entryX=0.5;entryY=0;entryDx=0;entryDy=0;" edge="1" parent="vghfPPBGdmsyJYKC0ugQ-331" source="vghfPPBGdmsyJYKC0ugQ-340" target="vghfPPBGdmsyJYKC0ugQ-339">
          <mxGeometry relative="1" as="geometry" />
        </mxCell>
        <mxCell id="vghfPPBGdmsyJYKC0ugQ-351" value="No" style="edgeLabel;html=1;align=center;verticalAlign=middle;resizable=0;points=[];" vertex="1" connectable="0" parent="vghfPPBGdmsyJYKC0ugQ-350">
          <mxGeometry x="-0.1026" y="-1" relative="1" as="geometry">
            <mxPoint as="offset" />
          </mxGeometry>
        </mxCell>
        <mxCell id="vghfPPBGdmsyJYKC0ugQ-340" value="child의 왼쪽 가지에 command가 존재하는가?" style="rhombus;whiteSpace=wrap;html=1;shadow=0;fontFamily=Helvetica;fontSize=12;align=center;strokeWidth=1;spacing=6;spacingTop=-4;" vertex="1" parent="vghfPPBGdmsyJYKC0ugQ-331">
          <mxGeometry x="219" y="170" width="150" height="80" as="geometry" />
        </mxCell>
        <mxCell id="vghfPPBGdmsyJYKC0ugQ-344" value="append_cmd" style="rounded=1;whiteSpace=wrap;html=1;fontSize=12;glass=0;strokeWidth=1;shadow=0;" vertex="1" parent="vghfPPBGdmsyJYKC0ugQ-331">
          <mxGeometry x="429" y="190" width="160" height="40" as="geometry" />
        </mxCell>
        <mxCell id="vghfPPBGdmsyJYKC0ugQ-367" value="" style="edgeStyle=orthogonalEdgeStyle;rounded=0;orthogonalLoop=1;jettySize=auto;html=1;entryX=0.5;entryY=1;entryDx=0;entryDy=0;exitX=0;exitY=0.5;exitDx=0;exitDy=0;" edge="1" parent="vghfPPBGdmsyJYKC0ugQ-59" source="vghfPPBGdmsyJYKC0ugQ-331" target="vghfPPBGdmsyJYKC0ugQ-365">
          <mxGeometry relative="1" as="geometry">
            <mxPoint x="1141" y="1870" as="sourcePoint" />
            <mxPoint x="715" y="1110" as="targetPoint" />
          </mxGeometry>
        </mxCell>
        <mxCell id="vghfPPBGdmsyJYKC0ugQ-374" value="Yes" style="edgeStyle=orthogonalEdgeStyle;rounded=0;orthogonalLoop=1;jettySize=auto;html=1;entryX=1;entryY=0.5;entryDx=0;entryDy=0;" edge="1" parent="vghfPPBGdmsyJYKC0ugQ-59" source="vghfPPBGdmsyJYKC0ugQ-365" target="vghfPPBGdmsyJYKC0ugQ-100">
          <mxGeometry relative="1" as="geometry" />
        </mxCell>
        <mxCell id="vghfPPBGdmsyJYKC0ugQ-365" value="시작규칙에서&lt;br&gt;리턴되었는가?" style="rhombus;whiteSpace=wrap;html=1;shadow=0;fontFamily=Helvetica;fontSize=12;align=center;strokeWidth=1;spacing=6;spacingTop=-4;" vertex="1" parent="vghfPPBGdmsyJYKC0ugQ-59">
          <mxGeometry x="249.99999999999977" y="830" width="150" height="80" as="geometry" />
        </mxCell>
        <mxCell id="vghfPPBGdmsyJYKC0ugQ-94" style="edgeStyle=orthogonalEdgeStyle;rounded=0;orthogonalLoop=1;jettySize=auto;html=1;entryX=1;entryY=0.5;entryDx=0;entryDy=0;" edge="1" parent="WIyWlLk6GJQsqaUBKTNV-1" source="vghfPPBGdmsyJYKC0ugQ-51" target="vghfPPBGdmsyJYKC0ugQ-31">
          <mxGeometry relative="1" as="geometry" />
        </mxCell>
        <mxCell id="vghfPPBGdmsyJYKC0ugQ-378" style="edgeStyle=orthogonalEdgeStyle;rounded=0;orthogonalLoop=1;jettySize=auto;html=1;entryX=0;entryY=0.5;entryDx=0;entryDy=0;" edge="1" parent="WIyWlLk6GJQsqaUBKTNV-1" source="vghfPPBGdmsyJYKC0ugQ-100" target="vghfPPBGdmsyJYKC0ugQ-382">
          <mxGeometry relative="1" as="geometry">
            <mxPoint x="2110" y="1550" as="targetPoint" />
            <Array as="points">
              <mxPoint x="515" y="1550" />
            </Array>
          </mxGeometry>
        </mxCell>
        <mxCell id="vghfPPBGdmsyJYKC0ugQ-380" value="Yes" style="edgeLabel;html=1;align=center;verticalAlign=middle;resizable=0;points=[];" vertex="1" connectable="0" parent="vghfPPBGdmsyJYKC0ugQ-378">
          <mxGeometry x="-0.8942" relative="1" as="geometry">
            <mxPoint x="1" as="offset" />
          </mxGeometry>
        </mxCell>
        <mxCell id="vghfPPBGdmsyJYKC0ugQ-381" value="Container" style="swimlane;" vertex="1" parent="WIyWlLk6GJQsqaUBKTNV-1">
          <mxGeometry x="2030" y="620" width="1860" height="1520" as="geometry" />
        </mxCell>
        <mxCell id="vghfPPBGdmsyJYKC0ugQ-382" value="root의 node type 파악" style="rounded=1;whiteSpace=wrap;html=1;fontSize=12;glass=0;strokeWidth=1;shadow=0;" vertex="1" parent="vghfPPBGdmsyJYKC0ugQ-381">
          <mxGeometry x="50" y="910" width="160" height="40" as="geometry" />
        </mxCell>
      </root>
    </mxGraphModel>
  </diagram>
</mxfile>
